<svg xmlns="http://www.w3.org/2000/svg" height="461.813" width="492.187" xml:space="preserve"><path style="fill:#677d9e;fill-opacity:1;fill-rule:evenodd;stroke:none" d="M3631.3 2715.65H2422c-31.81 0-57.6 25.79-57.6 57.6v630.2c0 31.82 25.79 57.6 57.6 57.6h1209.3c31.81 0 57.6-25.78 57.6-57.6v-630.2c0-31.81-25.79-57.6-57.6-57.6" transform="matrix(.13333 0 0 -.13333 0 461.813)"/><path style="fill:none;stroke:#312e2f;stroke-width:5;stroke-linecap:butt;stroke-linejoin:miter;stroke-miterlimit:2.61310005;stroke-dasharray:none;stroke-opacity:1" d="M3631.3 2715.65H2422c-31.81 0-57.6 25.79-57.6 57.6v630.2c0 31.82 25.79 57.6 57.6 57.6h1209.3c31.81 0 57.6-25.78 57.6-57.6v-630.2c0-31.81-25.79-57.6-57.6-57.6z" transform="matrix(.13333 0 0 -.13333 0 461.813)"/><path style="fill:#677d9e;fill-opacity:1;fill-rule:evenodd;stroke:none" d="M2969.05 690.301c0 31.808 25.79 57.609 57.6 57.609h604.65c31.81 0 57.6-25.801 57.6-57.609v-630.2c0-31.812-25.79-57.601-57.6-57.601h-604.65c-31.81 0-57.6 25.79-57.6 57.602V690.3" transform="matrix(.13333 0 0 -.13333 0 461.813)"/><path style="fill:none;stroke:#312e2f;stroke-width:5;stroke-linecap:butt;stroke-linejoin:miter;stroke-miterlimit:2.61310005;stroke-dasharray:none;stroke-opacity:1" d="M2969.05 690.301c0 31.808 25.79 57.609 57.6 57.609h604.65c31.81 0 57.6-25.801 57.6-57.609v-630.2c0-31.812-25.79-57.601-57.6-57.601h-604.65c-31.81 0-57.6 25.79-57.6 57.602z" transform="matrix(.13333 0 0 -.13333 0 461.813)"/><path style="fill:#677d9e;fill-opacity:1;fill-rule:evenodd;stroke:none" d="M2364.39 964.789V1595c0 31.8 25.79 57.59 57.61 57.59h1209.29c31.82 0 57.61-25.79 57.61-57.59V964.789c0-31.809-25.79-57.598-57.61-57.598H2422c-31.82 0-57.61 25.789-57.61 57.598" transform="matrix(.13333 0 0 -.13333 0 461.813)"/><path style="fill:none;stroke:#312e2f;stroke-width:5;stroke-linecap:butt;stroke-linejoin:miter;stroke-miterlimit:2.61310005;stroke-dasharray:none;stroke-opacity:1" d="M2364.39 964.789V1595c0 31.8 25.79 57.59 57.61 57.59h1209.29c31.82 0 57.61-25.79 57.61-57.59V964.789c0-31.809-25.79-57.598-57.61-57.598H2422c-31.82 0-57.61 25.789-57.61 57.598z" transform="matrix(.13333 0 0 -.13333 0 461.813)"/><path style="fill:#677d9e;fill-opacity:1;fill-rule:evenodd;stroke:none" d="M2148.03 2715.65H938.723c-31.809 0-57.602 25.79-57.602 57.6v630.2c0 31.82 25.793 57.6 57.602 57.6H2148.03c31.81 0 57.6-25.78 57.6-57.6v-630.2c0-31.81-25.79-57.6-57.6-57.6" transform="matrix(.13333 0 0 -.13333 0 461.813)"/><path style="fill:none;stroke:#312e2f;stroke-width:5;stroke-linecap:butt;stroke-linejoin:miter;stroke-miterlimit:2.61310005;stroke-dasharray:none;stroke-opacity:1" d="M2148.03 2715.65H938.723c-31.809 0-57.602 25.79-57.602 57.6v630.2c0 31.82 25.793 57.6 57.602 57.6H2148.03c31.81 0 57.6-25.78 57.6-57.6v-630.2c0-31.81-25.79-57.6-57.6-57.6z" transform="matrix(.13333 0 0 -.13333 0 461.813)"/><path style="fill:#677d9e;fill-opacity:1;fill-rule:evenodd;stroke:none" d="M2969.05 1869.06v630.2c0 31.81 25.79 57.6 57.6 57.6h604.65c31.81 0 57.6-25.79 57.6-57.6v-630.2c0-31.81-25.79-57.59-57.6-57.59h-604.65c-31.81 0-57.6 25.78-57.6 57.59" transform="matrix(.13333 0 0 -.13333 0 461.813)"/><path style="fill:none;stroke:#312e2f;stroke-width:5;stroke-linecap:butt;stroke-linejoin:miter;stroke-miterlimit:2.61310005;stroke-dasharray:none;stroke-opacity:1" d="M2969.05 1869.06v630.2c0 31.81 25.79 57.6 57.6 57.6h604.65c31.81 0 57.6-25.79 57.6-57.6v-630.2c0-31.81-25.79-57.59-57.6-57.59h-604.65c-31.81 0-57.6 25.78-57.6 57.59z" transform="matrix(.13333 0 0 -.13333 0 461.813)"/><path style="fill:#677d9e;fill-opacity:1;fill-rule:evenodd;stroke:none" d="M2752.68 1811.47h-1209.3c-31.81 0-57.6 25.78-57.6 57.59v630.2c0 31.81 25.79 57.6 57.6 57.6h1209.3c31.82 0 57.61-25.79 57.61-57.6v-630.2c0-31.81-25.79-57.59-57.61-57.59" transform="matrix(.13333 0 0 -.13333 0 461.813)"/><path style="fill:none;stroke:#312e2f;stroke-width:5;stroke-linecap:butt;stroke-linejoin:miter;stroke-miterlimit:2.61310005;stroke-dasharray:none;stroke-opacity:1" d="M2752.68 1811.47h-1209.3c-31.81 0-57.6 25.78-57.6 57.59v630.2c0 31.81 25.79 57.6 57.6 57.6h1209.3c31.82 0 57.61-25.79 57.61-57.6v-630.2c0-31.81-25.79-57.59-57.61-57.59z" transform="matrix(.13333 0 0 -.13333 0 461.813)"/><path style="fill:#c7d2d5;fill-opacity:1;fill-rule:evenodd;stroke:none" d="M1269.41 1811.47h-186.5c29.84-37.32 59.41-74.11 88.6-110.42 13.07-16.24 26.05-32.39 38.95-48.46h937.56c31.82 0 57.6-25.79 57.6-57.59V964.789c0-31.809-25.78-57.598-57.6-57.598H1735.6c27.22-53.011 51.26-106.019 71.64-159.281h945.44c31.82 0 57.61-25.801 57.61-57.609v-630.2c0-31.812-25.79-57.601-57.61-57.601l-971.78.012c-.48-.012-.93-.02-1.39-.012H60.102C28.289 2.5 2.5 28.29 2.5 60.102V3403.45c0 31.82 25.79 57.6 57.602 57.6h604.656c31.808 0 57.601-25.78 57.601-57.6v-630.2c0-31.81-25.793-57.6-57.601-57.6H443.445c31.352-54.1 63.418-107 96.043-158.79h729.922c31.81 0 57.6-25.79 57.6-57.6v-630.2c0-31.81-25.79-57.59-57.6-57.59" transform="matrix(.13333 0 0 -.13333 0 461.813)"/><path style="fill:none;stroke:#312e2f;stroke-width:5;stroke-linecap:butt;stroke-linejoin:miter;stroke-miterlimit:2.61310005;stroke-dasharray:none;stroke-opacity:1" d="M1269.41 1811.47h-186.5c29.84-37.32 59.41-74.11 88.6-110.42 13.07-16.24 26.05-32.39 38.95-48.46h937.56c31.82 0 57.6-25.79 57.6-57.59V964.789c0-31.809-25.78-57.598-57.6-57.598H1735.6c27.22-53.011 51.26-106.019 71.64-159.281h945.44c31.82 0 57.61-25.801 57.61-57.609v-630.2c0-31.812-25.79-57.601-57.61-57.601l-971.78.012c-.48-.012-.93-.02-1.39-.012H60.102C28.289 2.5 2.5 28.29 2.5 60.102V3403.45c0 31.82 25.79 57.6 57.602 57.6h604.656c31.808 0 57.601-25.78 57.601-57.6v-630.2c0-31.81-25.793-57.6-57.601-57.6H443.445c31.352-54.1 63.418-107 96.043-158.79h729.922c31.81 0 57.6-25.79 57.6-57.6v-630.2c0-31.81-25.79-57.59-57.6-57.59z" transform="matrix(.13333 0 0 -.13333 0 461.813)"/><path style="fill:#100f0d;fill-opacity:1;fill-rule:nonzero;stroke:none" d="M2422 3461.05h1209.3c31.81 0 57.6-25.78 57.6-57.6v-630.2c0-31.81-25.79-57.6-57.6-57.6H2422c-31.81 0-57.6 25.79-57.6 57.6v630.2c0 31.82 25.79 57.6 57.6 57.6zm1151.71-115.2H2479.59v-514.99h1094.12v514.99M938.723 3461.05H2148.03c31.81 0 57.6-25.78 57.6-57.6v-630.2c0-31.81-25.79-57.6-57.6-57.6H938.723c-31.809 0-57.602 25.79-57.602 57.6v630.2c0 31.82 25.793 57.6 57.602 57.6zm1151.697-115.2H996.324v-514.99H2090.42v514.99M60.102 3461.05h604.656c31.808 0 57.601-25.78 57.601-57.6v-630.2c0-31.81-25.793-57.6-57.601-57.6H345.691c-20.578-.28-40.64 10.5-51.277 29.78l50.43 27.82-50.403-27.67c-53.644 97.23-105.253 199.06-154.015 306.16C92.16 3157.76 47.41 3267.34 7.129 3380.8c-2.98 6.95-4.625 14.61-4.625 22.64v.01c0 31.82 25.793 57.6 57.598 57.6zm547.054-115.2H142.371a4006.038 4006.038 0 0 1 102.453-246.4c41.918-92.07 86.836-181.54 134.055-268.59h228.277v514.99M1211.81 2441.67H613.98c54.106-81.27 109.727-160.3 166.004-237.28 71.579-97.9 142.219-189.85 211.36-277.72h220.466zm-703.415 115.19h761.015c31.81 0 57.6-25.79 57.6-57.6v-630.2c0-31.81-25.79-57.59-57.6-57.59H963.73c-20.277 0-38.117 10.48-48.378 26.32-76.661 97.1-153.618 196.81-228.067 298.65-76.625 104.8-153.031 214.99-227.699 331.96l-.199-.13c-17.117 26.82-9.254 62.43 17.554 79.55 9.758 6.22 20.68 9.14 31.454 9.04M2695.08 2441.67h-1094.1v-515h1094.1zm-1151.7 115.19h1209.3c31.82 0 57.61-25.79 57.61-57.6v-630.2c0-31.81-25.79-57.59-57.61-57.59h-1209.3c-31.81 0-57.6 25.78-57.6 57.59v630.2c0 31.81 25.79 57.6 57.6 57.6M3573.71 2441.67h-489.46v-515h489.46zm-547.06 115.19h604.65c31.81 0 57.6-25.79 57.6-57.6v-630.2c0-31.81-25.79-57.59-57.6-57.59h-604.65c-31.81 0-57.6 25.78-57.6 57.59v630.2c0 31.81 25.79 57.6 57.6 57.6M2422 1652.59h1209.29c31.82 0 57.61-25.79 57.61-57.59V964.789c0-31.809-25.79-57.598-57.61-57.598H2422c-31.82 0-57.61 25.789-57.61 57.598V1595c0 31.8 25.79 57.59 57.61 57.59zm1151.7-115.19H2479.59v-515.01H3573.7v515.01M1183.02 1652.59h965c31.82 0 57.6-25.79 57.6-57.59V964.789c0-31.809-25.78-57.598-57.6-57.598h-509.08c-20.23-.269-40.01 10.141-50.79 28.938l49.96 28.66-49.95-28.57c-57.14 99.621-125.16 199.851-200.74 302.411-75.76 102.81-159.08 208.02-246.69 317.25-9.5 10.28-15.31 24.02-15.31 39.12 0 31.8 25.79 57.59 57.6 57.59zm907.4-115.19h-787.9c62.37-78.63 121.99-155.35 177.6-230.82 71.01-96.36 135.54-190.67 191.01-284.19h419.29v515.01M2695.08 632.699h-851.07c22.59-81.457 36.13-163.859 39.04-247.988 3.01-87.152-5.37-175.879-26.88-267.012h838.91zM1767.11 747.91h985.57c31.82 0 57.61-25.801 57.61-57.609v-630.2c0-31.812-25.79-57.601-57.61-57.601H1780.9c-31.81 0-57.6 25.79-57.6 57.602a57.44 57.44 0 0 0 4.03 21.207c31.68 103.543 44.32 202.953 40.97 299.8-3.41 98.411-23.32 194.692-56.52 290.391l-.24-.09c-10.43 30.051 5.48 62.871 35.53 73.301a57.424 57.424 0 0 0 20.04 3.199M3573.71 632.699h-489.46v-515h489.46zM3026.65 747.91h604.65c31.81 0 57.6-25.801 57.6-57.609v-630.2c0-31.812-25.79-57.601-57.6-57.601h-604.65c-31.81 0-57.6 25.79-57.6 57.602V690.3c0 31.808 25.79 57.609 57.6 57.609" transform="matrix(.13333 0 0 -.13333 0 461.813)"/><path style="fill:#100f0d;fill-opacity:1;fill-rule:nonzero;stroke:none" d="M1081.96 1629.05c-326.261 405.81-699.155 869.7-964.261 1473.18V117.699H1737.62c138.42 523.52-214.6 962.741-655.66 1511.351zM115.445 3419.47c257.282-724.83 686.989-1259.34 1056.065-1718.42C1645.3 1111.74 2022.17 642.969 1835.8 43.23c7.06-14.699-35.52-41.242-56.29-40.73H60.102C28.289 2.5 2.5 28.29 2.5 60.102V3403.45c0 31.82 25.79 57.6 57.602 57.6 26.25 0 48.406-17.56 55.343-41.58" transform="matrix(.13333 0 0 -.13333 0 461.813)"/><path style="fill:#f08695;fill-opacity:1;fill-rule:evenodd;stroke:none" d="M607.156 2830.86v514.99H142.402c59.477-157.55 127.012-305.97 200.075-446.5 11.964-23 24.105-45.83 36.402-68.49h228.277" transform="matrix(.13333 0 0 -.13333 0 461.813)"/><path style="fill:none;stroke:#312e2f;stroke-width:5;stroke-linecap:butt;stroke-linejoin:miter;stroke-miterlimit:2.61310005;stroke-dasharray:none;stroke-opacity:1" d="M607.156 2830.86v514.99H142.402c59.477-157.55 127.012-305.97 200.075-446.5 11.964-23 24.105-45.83 36.402-68.49z" transform="matrix(.13333 0 0 -.13333 0 461.813)"/><path style="fill:#f08695;fill-opacity:1;fill-rule:evenodd;stroke:none" d="M2090.42 2830.86v514.99H996.324v-514.99H2090.42" transform="matrix(.13333 0 0 -.13333 0 461.813)"/><path style="fill:none;stroke:#312e2f;stroke-width:5;stroke-linecap:butt;stroke-linejoin:miter;stroke-miterlimit:2.61310005;stroke-dasharray:none;stroke-opacity:1" d="M2090.42 2830.86v514.99H996.324v-514.99z" transform="matrix(.13333 0 0 -.13333 0 461.813)"/><path style="fill:#f08695;fill-opacity:1;fill-rule:evenodd;stroke:none" d="M3573.71 2830.86v514.99H2479.59v-514.99h1094.12" transform="matrix(.13333 0 0 -.13333 0 461.813)"/><path style="fill:none;stroke:#312e2f;stroke-width:5;stroke-linecap:butt;stroke-linejoin:miter;stroke-miterlimit:2.61310005;stroke-dasharray:none;stroke-opacity:1" d="M3573.71 2830.86v514.99H2479.59v-514.99z" transform="matrix(.13333 0 0 -.13333 0 461.813)"/><path style="fill:#f08695;fill-opacity:1;fill-rule:evenodd;stroke:none" d="M3573.71 1926.67v515h-489.46v-515h489.46" transform="matrix(.13333 0 0 -.13333 0 461.813)"/><path style="fill:none;stroke:#312e2f;stroke-width:5;stroke-linecap:butt;stroke-linejoin:miter;stroke-miterlimit:2.61310005;stroke-dasharray:none;stroke-opacity:1" d="M3573.71 1926.67v515h-489.46v-515z" transform="matrix(.13333 0 0 -.13333 0 461.813)"/><path style="fill:#f08695;fill-opacity:1;fill-rule:evenodd;stroke:none" d="M2695.08 1926.67v515h-1094.1v-515h1094.1" transform="matrix(.13333 0 0 -.13333 0 461.813)"/><path style="fill:none;stroke:#312e2f;stroke-width:5;stroke-linecap:butt;stroke-linejoin:miter;stroke-miterlimit:2.61310005;stroke-dasharray:none;stroke-opacity:1" d="M2695.08 1926.67v515h-1094.1v-515z" transform="matrix(.13333 0 0 -.13333 0 461.813)"/><path style="fill:#f08695;fill-opacity:1;fill-rule:evenodd;stroke:none" d="M1211.81 1926.67v515H614.098c39.617-59.57 79.832-117.64 120.375-174.36.121-.17.25-.34.371-.52a7577.874 7577.874 0 0 1 45.14-62.4c18.61-25.45 37.149-50.5 55.618-75.18.343-.45.691-.92 1.039-1.38 51.652-68.93 103.441-135.9 154.804-201.16h220.365" transform="matrix(.13333 0 0 -.13333 0 461.813)"/><path style="fill:none;stroke:#312e2f;stroke-width:5;stroke-linecap:butt;stroke-linejoin:miter;stroke-miterlimit:2.61310005;stroke-dasharray:none;stroke-opacity:1" d="M1211.81 1926.67v515H614.098c39.617-59.57 79.832-117.64 120.375-174.36.121-.17.25-.34.371-.52a7577.874 7577.874 0 0 1 45.14-62.4c18.61-25.45 37.149-50.5 55.618-75.18.343-.45.691-.92 1.039-1.38 51.652-68.93 103.441-135.9 154.804-201.16z" transform="matrix(.13333 0 0 -.13333 0 461.813)"/><path style="fill:#f08695;fill-opacity:1;fill-rule:evenodd;stroke:none" d="M2090.42 1022.39v515.01h-787.9c141.75-178.63 269.59-347.7 369.12-515.01h418.78" transform="matrix(.13333 0 0 -.13333 0 461.813)"/><path style="fill:none;stroke:#312e2f;stroke-width:5;stroke-linecap:butt;stroke-linejoin:miter;stroke-miterlimit:2.61310005;stroke-dasharray:none;stroke-opacity:1" d="M2090.42 1022.39v515.01h-787.9c141.75-178.63 269.59-347.7 369.12-515.01z" transform="matrix(.13333 0 0 -.13333 0 461.813)"/><path style="fill:#f08695;fill-opacity:1;fill-rule:evenodd;stroke:none" d="M3573.7 1022.39v515.01H2479.59v-515.01H3573.7" transform="matrix(.13333 0 0 -.13333 0 461.813)"/><path style="fill:none;stroke:#312e2f;stroke-width:5;stroke-linecap:butt;stroke-linejoin:miter;stroke-miterlimit:2.61310005;stroke-dasharray:none;stroke-opacity:1" d="M3573.7 1022.39v515.01H2479.59v-515.01z" transform="matrix(.13333 0 0 -.13333 0 461.813)"/><path style="fill:#f08695;fill-opacity:1;fill-rule:evenodd;stroke:none" d="M3573.71 117.699v515h-489.46v-515h489.46" transform="matrix(.13333 0 0 -.13333 0 461.813)"/><path style="fill:none;stroke:#312e2f;stroke-width:5;stroke-linecap:butt;stroke-linejoin:miter;stroke-miterlimit:2.61310005;stroke-dasharray:none;stroke-opacity:1" d="M3573.71 117.699v515h-489.46v-515z" transform="matrix(.13333 0 0 -.13333 0 461.813)"/><path style="fill:#f08695;fill-opacity:1;fill-rule:evenodd;stroke:none" d="M2695.08 117.699v515H1845.3c45.77-165.179 53.88-334.429 10.94-515h838.84" transform="matrix(.13333 0 0 -.13333 0 461.813)"/><path style="fill:none;stroke:#312e2f;stroke-width:5;stroke-linecap:butt;stroke-linejoin:miter;stroke-miterlimit:2.61310005;stroke-dasharray:none;stroke-opacity:1" d="M2695.08 117.699v515H1845.3c45.77-165.179 53.88-334.429 10.94-515z" transform="matrix(.13333 0 0 -.13333 0 461.813)"/></svg>